<svg height="100%" width="100%" id="bg-svg" viewBox="0 0 1440 500" xmlns="http://www.w3.org/2000/svg" class="transition duration-300 ease-in-out delay-150"><path d="M 0,500 C 0,500 0,166 0,166 C 67.07198085419736,171.7233063328424 134.14396170839473,177.44661266568482 195,162 C 255.85603829160527,146.55338733431518 310.49613402061846,109.93685567010311 374,124 C 437.50386597938154,138.0631443298969 509.8715022091312,202.80596465390278 569,198 C 628.1284977908688,193.19403534609722 674.017857142857,118.83928571428572 726,120 C 777.982142857143,121.16071428571428 836.0570692194406,197.83689248895433 893,226 C 949.9429307805594,254.16310751104567 1005.7538659793813,233.81314432989691 1065,214 C 1124.2461340206187,194.18685567010309 1186.927466863034,174.91053019145804 1250,167 C 1313.072533136966,159.08946980854196 1376.536266568483,162.54473490427097 1440,166 C 1440,166 1440,500 1440,500 Z" stroke="none" stroke-width="0" fill="#f0db7888" class="transition-all duration-300 ease-in-out delay-150"></path><path d="M 0,500 C 0,500 0,333 0,333 C 68.50368188512518,327.1273932253314 137.00736377025035,321.2547864506627 195,310 C 252.99263622974965,298.7452135493373 300.47422680412376,282.1082474226804 358,271 C 415.52577319587624,259.8917525773196 483.09572901325475,254.3122238586156 546,284 C 608.9042709867452,313.6877761413844 667.1428571428572,378.64285714285717 723,382 C 778.8571428571428,385.35714285714283 832.3328424153166,327.1163475699558 896,308 C 959.6671575846834,288.8836524300442 1033.5257731958766,308.8917525773196 1095,329 C 1156.4742268041234,349.1082474226804 1205.5640648011781,369.3166421207658 1261,370 C 1316.4359351988219,370.6833578792342 1378.217967599411,351.8416789396171 1440,333 C 1440,333 1440,500 1440,500 Z" stroke="none" stroke-width="0" fill="#f0db78ff" class="transition-all duration-300 ease-in-out delay-150"></path></svg>